<svg
    width="45"
    xmlns:dc="http://purl.org/dc/elements/1.1/"
    xmlns:cc="http://creativecommons.org/ns#"
    xmlns:rdf="http://www.w3.org/1999/02/22-rdf-syntax-ns#"
    xmlns:svg="http://www.w3.org/2000/svg"
    xmlns="http://www.w3.org/2000/svg"
    xmlns:xlink="http://www.w3.org/1999/xlink"
    xmlns:sodipodi="http://sodipodi.sourceforge.net/DTD/sodipodi-0.dtd"
    xmlns:inkscape="http://www.inkscape.org/namespaces/inkscape"
    viewBox="0 0 400 298"
    version="1.1"
    id="svg823"
    sodipodi:docname="nuxt-stories.svg"
    inkscape:version="0.92.4 (5da689c313, 2019-01-14)">
    <title>Nuxt Stories</title>
    <metadata
      id="metadata829">
      <rdf:RDF>
        <cc:Work
          rdf:about="">
          <dc:format>image/svg+xml</dc:format>
          <dc:type
            rdf:resource="http://purl.org/dc/dcmitype/StillImage" />
          <dc:title></dc:title>
        </cc:Work>
      </rdf:RDF>
    </metadata>
    <defs
      id="defs827">
      <linearGradient
        inkscape:collect="always"
        id="linearGradient837">
        <stop
          style="stop-color:#ddcc2a;stop-opacity:1"
          offset="0"
          id="stop833" />
        <stop
          style="stop-color:#f9f9f9;stop-opacity:0;"
          offset="1"
          id="stop835" />
      </linearGradient>
      <radialGradient
        inkscape:collect="always"
        xlink:href="#linearGradient837"
        id="radialGradient841"
        cx="225.04437"
        cy="224.32811"
        fx="225.04437"
        fy="224.32811"
        r="84.066049"
        gradientTransform="matrix(2.0276521,-0.03502679,0.03774494,2.1850053,-241.853,-257.73067)"
        gradientUnits="userSpaceOnUse" />
    </defs>
    <sodipodi:namedview
      pagecolor="#ffffff"
      bordercolor="#666666"
      borderopacity="1"
      objecttolerance="10"
      gridtolerance="10"
      guidetolerance="10"
      inkscape:pageopacity="0"
      inkscape:pageshadow="2"
      inkscape:window-width="1366"
      inkscape:window-height="705"
      id="namedview825"
      showgrid="false"
      inkscape:zoom="0.45134228"
      inkscape:cx="174.29964"
      inkscape:cy="166.22967"
      inkscape:window-x="-8"
      inkscape:window-y="-8"
      inkscape:window-maximized="1"
      inkscape:current-layer="svg823" />
    <g
      fill-rule="nonzero"
      fill="none"
      id="g821">
      <path
        d="M227.92099 82.07407l-13.6889 23.7037-46.8148-81.08641L23.7037 273.58025h97.3037c0 13.0912 10.61252 23.7037 23.70371 23.7037H23.70371c-8.46771 0-16.29145-4.52017-20.5246-11.85382-4.23315-7.33366-4.23272-16.36849.00114-23.70174L146.89383 12.83951c4.23415-7.33433 12.0596-11.85252 20.5284-11.85252 8.46878 0 16.29423 4.51819 20.52839 11.85252l39.97037 69.23456z"
        fill="#00C58E"
        id="path815" />
      <path
        d="M331.6642 261.7284l-90.05432-155.95062-13.6889-23.7037-13.68888 23.7037-90.04445 155.95061c-4.23385 7.33325-4.23428 16.36808-.00113 23.70174 4.23314 7.33365 12.05689 11.85382 20.5246 11.85382h166.4c8.46946 0 16.29644-4.51525 20.532-11.84955 4.23555-7.3343 4.23606-16.37123.00132-23.706h.01976zM144.7111 273.58024L227.921 129.48148l83.19012 144.09877h-166.4z"
        fill="#FFF"
        id="path817" />
      <path
        d="M396.04938 285.4321c-4.23344 7.33254-12.05656 11.85185-20.52345 11.85185H311.1111c13.0912 0 23.7037-10.6125 23.7037-23.7037h40.66173L260.09877 73.74815l-18.4889 32.02963-13.68888-23.7037L239.5753 61.8963c4.23416-7.33433 12.0596-11.85252 20.5284-11.85252 8.46879 0 16.29423 4.51819 20.52839 11.85252l115.41728 199.8321c4.23426 7.33395 4.23426 16.36975 0 23.7037z"
        fill="#108775"
        id="path819" />
    </g>
    <path
      style="fill:url(#radialGradient841);stroke:none;stroke-width:1px;stroke-linecap:butt;stroke-linejoin:miter;stroke-opacity:1;fill-opacity:1"
      d="M 311.11112,273.58025 227.921,129.48148 144.71112,273.58025 Z"
      id="path831"
      inkscape:connector-curvature="0" />
  </svg>